HIERARCHY
ROOT Hips
{
 OFFSET 0.000000 0.000000 0.000000
 CHANNELS 6 Xposition Yposition Zposition Yrotation Xrotation Zrotation
 JOINT Chest
 {
  OFFSET 0.000000 10.385163 0.011643
  CHANNELS 3 Yrotation Xrotation Zrotation
  JOINT Chest2
  {
   OFFSET 0.000000 11.579334 -0.021150
   CHANNELS 3 Yrotation Xrotation Zrotation
   JOINT Chest3
   {
    OFFSET 0.000000 10.463212 0.000000
    CHANNELS 3 Yrotation Xrotation Zrotation
    JOINT Chest4
    {
     OFFSET 0.000000 10.463212 0.000000
     CHANNELS 3 Yrotation Xrotation Zrotation
     JOINT Neck
     {
      OFFSET 0.000000 14.544862 0.000000
      CHANNELS 3 Yrotation Xrotation Zrotation
      JOINT Head
      {
       OFFSET 0.000000 9.730630 -0.050295
       CHANNELS 3 Yrotation Xrotation Zrotation
       End Site
       {
        OFFSET 0.000000 18.757589 -0.026270
       }
      }
     }
     JOINT RightCollar
     {
      OFFSET -2.985174 8.102313 0.000000
      CHANNELS 3 Yrotation Xrotation Zrotation
      JOINT RightShoulder
      {
       OFFSET -13.558590 0.000000 0.000000
       CHANNELS 3 Yrotation Xrotation Zrotation
       JOINT RightElbow
       {
        OFFSET -28.208579 0.000000 0.000000
        CHANNELS 3 Yrotation Xrotation Zrotation
        JOINT RightWrist
        {
         OFFSET -23.322907 0.000000 0.010349
         CHANNELS 3 Yrotation Xrotation Zrotation
         End Site
         {
          OFFSET -17.603338 0.000000 0.000000
         }
        }
       }
      }
     }
     JOINT LeftCollar
     {
      OFFSET 2.985174 8.102313 0.000000
      CHANNELS 3 Yrotation Xrotation Zrotation
      JOINT LeftShoulder
      {
       OFFSET 13.558590 0.000000 0.000000
       CHANNELS 3 Yrotation Xrotation Zrotation
       JOINT LeftElbow
       {
        OFFSET 28.208579 0.000000 0.000000
        CHANNELS 3 Yrotation Xrotation Zrotation
        JOINT LeftWrist
        {
         OFFSET 23.322907 0.000000 0.010349
         CHANNELS 3 Yrotation Xrotation Zrotation
         End Site
         {
          OFFSET 17.603338 0.000000 0.000000
         }
        }
       }
      }
     }
    }
   }
  }
 }
 JOINT RightHip
 {
  OFFSET -8.341224 -0.057053 -0.005822
  CHANNELS 3 Yrotation Xrotation Zrotation
  JOINT RightKnee
  {
   OFFSET 0.000000 -44.280013 0.005508
   CHANNELS 3 Yrotation Xrotation Zrotation
   JOINT RightAnkle
   {
    OFFSET 0.000000 -43.261728 0.009315
    CHANNELS 3 Yrotation Xrotation Zrotation
    JOINT RightToe
    {
     OFFSET 0.000000 -8.082955 18.257715
     CHANNELS 3 Yrotation Xrotation Zrotation
     End Site
     {
      OFFSET 0.000000 -1.634678 7.189621
     }
    }
   }
  }
 }
 JOINT LeftHip
 {
  OFFSET 8.341224 -0.057053 -0.005822
  CHANNELS 3 Yrotation Xrotation Zrotation
  JOINT LeftKnee
  {
   OFFSET 0.000000 -44.280013 0.005508
   CHANNELS 3 Yrotation Xrotation Zrotation
   JOINT LeftAnkle
   {
    OFFSET 0.000000 -43.261728 0.009315
    CHANNELS 3 Yrotation Xrotation Zrotation
    JOINT LeftToe
    {
     OFFSET 0.000000 -8.082955 18.257715
     CHANNELS 3 Yrotation Xrotation Zrotation
     End Site
     {
      OFFSET 0.000000 -1.634678 7.189621
     }
    }
   }
  }
 }
}
MOTION
Frames: 11
Frame Time: 0.016667
21.973509 97.224582 -538.949415 50.354726 -1.234614 -0.471227 -5.903323 6.586452 3.490485 -2.668758 2.882567 1.632448 -2.668720 2.882470 1.632419 -2.008820 2.154748 1.236677 10.069381 12.397623 -2.049080 20.000517 -12.112284 -8.030919 -0.726505 -5.976866 4.976937 -17.601412 -2.124604 71.681767 5.146197 -4.541298 3.988054 11.684351 -3.902439 -9.095640 0.326130 -1.339823 -10.887816 3.617435 -12.518887 -72.647327 -18.478191 14.990009 -8.418392 -0.108046 -2.307871 -1.860827 -21.441649 -4.353695 2.573385 -16.797033 8.662956 1.039248 -18.442279 -4.782658 -0.090541 -0.003434 0.174753 0.348153 21.262926 -2.810376 5.336380 0.514687 16.308781 0.516655 9.004243 -8.083111 -7.650293 -0.022480 -3.268798 1.011520
21.801983 97.316210 -539.644908 52.387734 -0.943333 -0.545579 -6.446143 6.626972 3.369276 -2.908199 2.898379 1.587017 -2.908199 2.898379 1.587017 -2.188233 2.166310 1.203844 9.951363 12.164524 -1.704984 19.677271 -12.624754 -7.380839 -0.933103 -5.823365 5.074144 -16.814026 -2.417179 72.342546 5.375876 -5.659210 4.056778 11.765608 -4.054069 -9.643357 -0.217968 -1.192293 -10.732047 2.316413 -13.016023 -72.734311 -17.387463 14.808484 -7.757887 -0.108787 -2.249577 -2.046924 -21.144791 -5.045359 2.473713 -17.775392 8.716028 0.701905 -19.445906 -3.924634 0.774258 0.000000 -0.000000 0.000000 19.813106 -2.708156 5.090751 -1.093558 14.833728 -0.139108 9.869025 -7.795816 -7.622124 -0.027750 -2.437660 1.539935
21.581290 97.368631 -540.285796 54.237375 -0.699965 -0.692472 -6.826170 6.719895 3.274044 -3.076019 2.938393 1.551578 -3.076053 2.938422 1.551614 -2.314040 2.196099 1.178310 9.795258 11.972812 -1.322319 19.255504 -13.071278 -6.631410 -1.011346 -5.778508 5.111338 -16.242974 -2.522139 72.754759 5.808492 -6.288053 4.636585 11.849493 -4.222319 -10.223760 -0.744254 -1.049071 -10.650880 0.602834 -13.623081 -72.524027 -16.048487 14.505405 -7.003623 0.278057 -2.036672 -2.452576 -21.068223 -5.595767 2.528956 -18.382373 8.750739 0.459938 -20.160396 -3.134823 1.320587 0.021202 -0.771193 -1.572654 17.586945 -2.736551 4.923787 -0.237768 13.753035 -0.327823 9.387140 -7.697704 -7.277228 -0.017672 -1.494374 1.246922
21.318163 97.402838 -540.892599 55.931072 -0.461546 -0.860611 -7.081829 6.838201 3.183426 -3.188746 2.990398 1.516763 -3.188779 2.990357 1.516787 -2.398506 2.234914 1.153002 9.624470 11.802298 -0.916692 18.789273 -13.481706 -5.825165 -1.015971 -5.790802 5.102567 -15.781689 -2.519849 73.023384 6.413827 -6.570400 5.524082 11.933111 -4.371346 -10.776270 -1.238017 -0.913179 -10.608398 -1.360825 -14.295491 -72.127232 -14.500783 14.143725 -6.157469 0.911386 -1.704092 -2.996675 -21.056279 -6.113470 2.660992 -18.605510 8.808608 0.240640 -20.646731 -2.380169 1.706017 0.069638 -1.765180 -3.687133 14.938610 -2.890233 4.784761 1.803806 12.960114 -0.291754 8.346016 -7.605821 -6.841129 -0.006627 -0.611669 0.537945
21.052450 97.442674 -541.484372 57.359394 -0.202771 -1.013232 -7.215747 6.940922 3.113400 -3.247587 3.036261 1.489167 -3.247587 3.036261 1.489167 -2.442541 2.269377 1.132800 9.473608 11.655122 -0.597066 18.390129 -13.828292 -5.182919 -0.997991 -5.807911 5.079391 -15.417336 -2.529446 73.129341 7.201081 -6.331538 6.461251 12.034128 -4.375631 -10.962608 -1.568763 -0.856661 -10.598038 -3.033762 -14.906091 -71.834954 -13.036627 13.932851 -5.296598 1.545090 -1.326653 -3.479419 -20.734981 -6.698890 2.704209 -18.142173 9.006919 -0.049340 -20.688480 -1.704798 2.060446 0.091063 -2.178432 -4.786795 13.352944 -3.046272 4.592700 2.719352 12.031470 -0.280684 7.621295 -7.352621 -6.451340 0.000000 -0.000000 0.000000
20.799595 97.498452 -542.077140 58.394017 0.093971 -1.137522 -7.186036 7.011467 3.072375 -3.234121 3.068616 1.471591 -3.234111 3.068717 1.471589 -2.432409 2.293909 1.119711 9.357032 11.540615 -0.414981 18.107445 -14.084951 -4.808385 -0.956855 -5.820922 5.042986 -15.176475 -2.562955 72.997590 8.266917 -5.278053 7.447396 12.176063 -4.113666 -10.512570 -1.650269 -0.952889 -10.645541 -4.260162 -15.448460 -71.762302 -11.685834 14.117534 -4.363252 2.194865 -0.872428 -3.958190 -19.915415 -7.423710 2.596636 -16.700700 9.455812 -0.452741 -20.174222 -1.164909 2.440565 0.037541 -1.571522 -3.779792 13.843685 -3.169461 4.255223 1.204792 10.777957 -0.358471 7.623816 -6.844946 -6.108814 0.002869 0.180382 -0.114301
20.544154 97.559858 -542.654879 59.163399 0.407732 -1.249214 -7.034920 7.063442 3.048173 -3.166991 3.093031 1.459319 -3.166992 3.093097 1.459321 -2.382075 2.312396 1.110301 9.258942 11.451501 -0.319467 17.892103 -14.277336 -4.600805 -0.893356 -5.838593 4.991540 -15.036470 -2.590222 72.705054 9.565947 -3.728135 8.505714 12.382024 -3.724956 -9.698840 -1.573091 -1.133831 -10.734680 -5.182339 -15.952244 -71.831373 -10.408553 14.464475 -3.367059 2.846567 -0.371572 -4.364899 -18.782318 -8.210025 2.384284 -14.563966 10.070446 -0.866177 -19.212435 -0.748461 2.821931 -0.004826 -0.603067 -1.648407 15.397503 -3.281389 3.837344 -1.429458 9.412796 -0.419047 7.947673 -6.188889 -5.795439 0.001734 0.090169 -0.057178
20.279653 97.619794 -543.188570 59.943504 0.705019 -1.352797 -6.891444 7.101386 3.025626 -3.103190 3.111074 1.447656 -3.103190 3.111074 1.447656 -2.334211 2.326044 1.101319 9.166898 11.366154 -0.266797 17.705719 -14.454942 -4.476214 -0.858658 -5.835105 4.955389 -14.912245 -2.673087 72.453196 10.839715 -2.399751 9.411385 12.641820 -3.469945 -8.998841 -1.471009 -1.262420 -10.794122 -5.695040 -16.370030 -72.063094 -9.409329 14.484620 -2.478579 3.225129 -0.023491 -4.318971 -17.519699 -8.926255 2.059627 -12.292368 10.667229 -1.182099 -17.912869 -0.401913 3.219492 -0.000000 -0.000000 0.000000 16.458838 -3.361487 3.495981 -3.570190 8.123254 -0.477119 8.245317 -5.523080 -5.615231 0.000000 -0.000000 -0.000000
20.007158 97.676534 -543.673016 60.802377 0.978997 -1.440768 -6.803724 7.123231 2.996521 -3.063924 3.121769 1.433701 -3.063914 3.121758 1.433696 -2.304704 2.334210 1.090699 9.085418 11.280126 -0.255128 17.556991 -14.626020 -4.433939 -0.879484 -5.791108 4.956839 -14.790162 -2.866997 72.296005 12.006027 -1.452670 10.079769 12.958673 -3.472727 -8.522612 -1.376626 -1.271949 -10.789260 -5.592497 -16.700108 -72.572358 -8.824880 14.054661 -1.717214 3.182740 0.141052 -3.562619 -16.013672 -9.546212 1.577206 -10.211235 11.136915 -1.413569 -16.146047 -0.044246 3.540510 0.007248 0.096418 0.379603 16.341730 -3.376928 3.316801 -4.547042 6.906690 -0.588786 8.456118 -4.866889 -5.644836 0.000000 -0.000000 0.000000
19.725602 97.731804 -544.113415 61.672243 1.236279 -1.520956 -6.723768 7.131339 2.968797 -3.028076 3.126296 1.420290 -3.028071 3.126286 1.420286 -2.277772 2.337756 1.080483 9.009081 11.199383 -0.286767 17.435630 -14.779755 -4.475317 -0.928092 -5.726223 4.975619 -14.683869 -3.120041 72.175765 13.098047 -0.705329 10.591465 13.304429 -3.602558 -8.168764 -1.254726 -1.231877 -10.750669 -5.073758 -16.938523 -73.251344 -8.554736 13.314987 -1.087499 2.819330 0.137857 -2.384114 -14.374984 -10.078916 0.983642 -7.994739 11.567068 -1.562357 -14.042864 0.211991 3.887903 0.004510 0.037121 0.192623 15.732497 -3.376211 3.229603 -5.026963 5.751261 -0.715739 8.642049 -4.199638 -5.810533 0.000000 0.000000 0.000000
19.425310 97.783683 -544.496344 62.625255 1.465177 -1.619127 -6.636212 7.137546 2.953165 -2.989039 3.129859 1.412100 -2.989039 3.129859 1.412100 -2.248473 2.340571 1.074163 8.910838 11.117095 -0.324323 17.275016 -14.938126 -4.518991 -0.974059 -5.672958 4.978599 -14.547193 -3.341615 72.124651 13.979699 -0.336267 10.940264 13.565786 -3.718858 -8.085061 -1.136512 -1.208995 -10.700387 -4.646169 -17.044776 -73.772861 -8.443181 12.177664 -0.756221 2.246761 -0.171650 -1.229498 -13.130507 -10.457147 0.432679 -5.230198 12.041472 -1.532787 -12.113449 0.119290 4.511063 0.000000 0.000000 0.000000 15.134212 -3.476616 3.169360 -5.407657 4.818089 -0.769623 8.637298 -3.594147 -6.003065 0.000000 -0.000000 0.000000
